<svg width="234" height="95" viewBox="0 0 234 95" fill="none" xmlns="http://www.w3.org/2000/svg">
<path d="M13.381 0C12.0626 1.34632 11.1649 2.91704 10.688 4.71213L6.69052 2.01949V4.03897C3.99748 7.60112 2.44057 10.9389 2.01978 14.0523L0 13.4212C2.66499 17.8528 3.99748 22.0881 3.99748 26.1271L6.69052 26.8003C6.24168 27.6978 5.56842 28.1466 4.67074 28.1466L9.38356 32.8167C10.7301 34.163 12.287 35.0605 14.0543 35.5093C15.4008 37.7251 17.1822 38.833 19.3983 38.833C23.4379 41.5257 24.1111 43.0824 21.4181 43.5031L22.0914 44.8494C24.7563 45.775 26.7621 47.1213 28.1086 48.8884L26.8042 51.539C27.6738 52.0158 28.5575 52.0158 29.4551 51.539C28.5575 53.7828 27.0005 54.9048 24.7844 54.9048C27.0005 56.6999 27.6738 58.481 26.8042 60.248C23.2135 60.6968 20.296 61.8187 18.0518 63.6138C16.2845 60.9492 14.0683 58.9438 11.4033 57.5974C11.4033 56.2511 10.7301 54.47 9.38356 52.2542C12.0486 49.5616 12.9322 46.4342 12.0345 42.872C10.2672 41.5257 8.93472 41.9745 8.03704 44.2183L6.01726 42.1988C-0.659234 56.0267 2.91746 65.1705 16.7473 69.6302C17.617 73.1924 18.9635 76.3198 20.7869 79.0124C23.0031 69.1955 28.7819 63.6138 38.1234 62.2675V60.248C36.8049 56.2371 36.3701 52.4505 36.8189 48.8884C35.5005 45.2982 34.8412 41.9464 34.8412 38.833C31.6993 39.2818 30.1284 37.9495 30.1284 34.8361L28.1086 35.5093C20.0856 31.9472 16.0741 27.7118 16.0741 22.8034C9.81838 23.7009 8.9207 19.0168 13.381 8.75111L21.4181 12.0748L19.3983 12.748C20.324 14.0943 21.4461 14.9779 22.7646 15.3986C24.1111 19.8863 24.56 23.9113 24.1111 27.4734C26.3273 28.7917 28.333 30.5728 30.1284 32.8167L29.4551 30.7972C32.1201 24.5704 32.1201 18.7784 29.4551 13.4212L30.1284 9.3822L27.4354 10.0554C25.668 8.28831 24.3356 6.28285 23.4379 4.03897C21.1937 4.48775 19.6368 3.81459 18.7671 2.01949C16.5229 2.49631 14.7276 1.82315 13.381 0Z" fill="#FF0000"/>
<path d="M19.1458 10.6023C13.2548 11.8645 12.2028 13.9681 15.9899 16.9132L24.1953 15.651C30.5352 16.9132 35.809 17.3339 40.0169 16.9132C39.5961 19.8583 38.5441 21.9619 36.861 23.2241L39.3857 25.1174C38.9649 28.0624 39.1753 30.5868 40.0169 32.6904V34.5837L41.2793 42.1988C42.1208 43.8818 42.5416 45.3543 42.5416 46.6165V51.6652L40.6481 61.7626L42.5416 66.1803C42.1208 69.1253 42.5416 72.0844 43.804 75.0576L45.0664 73.1222C46.3287 75.2539 46.9599 77.3716 46.9599 79.4752C49.4846 72.7155 49.695 65.7595 47.5911 58.6072C47.1703 53.5585 48.0119 49.3512 50.1158 45.9854V41.5678C47.1703 36.491 46.7495 31.6386 48.8534 27.0106C47.5911 23.6448 47.3807 20.4894 48.2223 17.5443C53.2717 18.3857 57.9144 17.965 62.1503 16.2821C65.5166 17.1236 68.6725 16.9132 71.6181 15.651V11.8645C67.4102 12.2852 63.8335 11.8645 60.888 10.6023L55.1653 12.4956C53.9029 12.0748 52.0093 11.6541 49.4846 11.2334H43.1728L41.2793 11.8645L28.6556 11.2334C26.5236 11.2334 24.8265 11.023 23.5641 10.6023C21.881 11.023 20.4082 11.023 19.1458 10.6023Z" fill="#FF0000"/>
<path d="M84.41 46.0695C84.41 49.8 84.1014 52.9133 83.4843 55.4097C73.5256 56.6438 67.298 61.3139 64.8013 69.4198C65.4184 86.8379 73.5116 93.6817 89.0807 89.9513C92.8117 99.2914 96.2341 93.0647 99.348 71.271L94.6772 64.7498C97.1739 57.906 97.8051 51.6792 96.5708 46.0695H84.41ZM77.8878 62.8565C80.3845 64.7358 82.5585 64.7358 84.41 62.8565C88.141 85.9123 84.1014 90.2738 72.2913 75.9411C73.5256 70.9765 75.3911 66.615 77.8878 62.8565ZM63.3706 38.7068C75.6015 38.3702 81.1419 40.3897 79.9917 44.7653C82.7689 43.5312 84.1435 44.4848 84.1154 47.6262L97.3703 47.7524C90.8621 35.1867 81.2401 29.4508 68.5042 30.5447L63.3706 38.7068Z" fill="#FF0000"/>
<path d="M143.994 57.0926L143.867 59.07L143.236 62.6882V64.2449L142.815 66.1382L142.984 67.9894L142.689 69.6302L142.016 70.6399V72.5332L141.595 74.9314L140.922 77.035L139.786 79.4331L139.491 80.6532L138.818 81.663L138.145 82.8831L137.093 84.2715L135.746 85.702L135.325 86.7958L134.063 88.058L132.969 89.2781L131.664 90.4562L130.444 91.4238L128.719 92.097L127.793 93.0226L125.942 93.7799L123.627 94.3268L121.397 94.2006L115.801 93.233L113.402 92.4756L111.93 92.2232L110.331 90.7086L109.531 90.4562L108.858 89.4464L108.395 87.8056L108.227 86.3751V83.7245L108.395 81.4526L108.858 80.527L109.279 79.8539L109.826 79.4331L110.331 79.8539V80.6532L110.204 81.9575L110.499 83.1776V84.9867L110.204 86.0806L110.878 88.058L111.761 88.8995L112.855 89.4464L114.076 90.4562L115.254 90.5824H116.222L117.652 91.0031H119.251L121.229 91.2555L122.996 90.7086L124.427 90.5824L126.278 91.0031L127.246 89.8251L128.34 89.0257L129.603 88.3525L130.697 87.5111L132.422 84.9867L134.442 82.6306L134.61 81.2002L135.62 80.2325L136.167 78.8862L136.84 77.8764V76.7826L137.513 74.8051L138.271 73.2905L138.692 71.3131L139.239 68.957L138.944 67.4424L139.617 65.5912V63.2352L139.786 61.1315L140.038 59.07L139.617 56.5456L139.07 54.6944L138.692 53.4743L137.85 52.3384L137.387 51.9176L136.714 52.3384L135.494 53.4743L134.315 54.5682L132.674 55.1151L131.412 56.1249L130.15 56.8401L128.719 57.0926L128.046 57.7657L126.278 58.1865L124.301 58.9438H122.07L119.798 58.0602L117.778 57.0926L116.6 56.9663L115.801 55.8725L115.001 55.5779L113.402 54.3158L111.761 53.3481L110.751 51.4969L109.952 50.1506L109.405 48.7201L108.858 46.8268L108.395 44.4287V42.0306L107.553 39.8007V37.5709L107.133 36.1825L106.88 33.9526L106.333 31.9752L105.029 30.0819L104.65 28.4832L104.103 26.7161L104.355 25.4539L104.65 24.3601L105.449 23.0558L106.754 22.0881L108.521 21.415L110.499 21.7095L112.056 22.0881L113.697 23.3082L114.707 24.7387L115.506 26.5899L116.895 29.3667L117.652 31.6807L117.905 35.0465L117.778 37.1501L118.031 39.6745L118.746 39.9269L119.251 42.0306L119.967 43.419L120.093 44.5549L121.229 45.5226L122.87 46.4903L124.848 47.2055L126.573 46.4903L128.172 46.1958L129.771 45.5226L131.117 44.5549L132.969 44.1763L135.494 44.3025L136.546 43.2927L137.387 42.0306L138.145 41.2312V39.2538L137.85 37.1501L137.387 34.6258L136.84 32.1014L136.419 29.6612V27.81L135.494 24.4863L134.315 22.6351V21.2888L134.947 19.8583L135.872 18.8906L137.513 19.1851L138.523 19.8583L139.07 20.9942L139.912 22.2564L140.669 23.3082L141.048 24.6125L141.89 26.1271L142.268 27.81L142.689 29.3667L142.984 31.4283L142.689 33.4057V35.2569L142.984 37.5709L142.815 39.38L142.984 41.3574L143.236 42.9982L143.362 45.1019L143.236 47.0793L143.362 49.2671L143.867 51.2445L143.236 53.3481L143.699 55.1151L143.994 57.0926Z" fill="#FF0000"/>
<path d="M160.32 0C159.002 1.34632 158.104 2.91704 157.627 4.71213L153.63 2.01949V4.03897C150.937 7.60112 149.38 10.9389 148.959 14.0523L146.939 13.4212C149.604 17.8528 150.937 22.0881 150.937 26.1271L153.63 26.8003C153.181 27.6978 152.507 28.1466 151.61 28.1466L156.323 32.8167C157.669 34.163 159.226 35.0605 160.993 35.5093C162.34 37.7251 164.121 38.833 166.337 38.833C170.377 41.5257 171.05 43.0824 168.357 43.5031L169.03 44.8494C171.695 45.775 173.701 47.1213 175.048 48.8884L173.743 51.539C174.613 52.0158 175.496 52.0158 176.394 51.539C175.496 53.7828 173.94 54.9048 171.723 54.9048C173.94 56.6999 174.613 58.481 173.743 60.248C170.152 60.6968 167.235 61.8187 164.991 63.6138C163.224 60.9492 161.007 58.9438 158.342 57.5974C158.342 56.2511 157.669 54.47 156.323 52.2542C158.988 49.5616 159.871 46.4342 158.974 42.872C157.206 41.5257 155.874 41.9745 154.976 44.2183L152.956 42.1988C146.28 56.0267 149.857 65.1705 163.686 69.6302C164.556 73.1924 165.903 76.3198 167.726 79.0124C169.942 69.1955 175.721 63.6138 185.062 62.2675V60.248C183.744 56.2371 183.309 52.4505 183.758 48.8884C182.439 45.2982 181.78 41.9464 181.78 38.833C178.638 39.2818 177.067 37.9495 177.067 34.8361L175.048 35.5093C167.025 31.9472 163.013 27.7118 163.013 22.8034C156.757 23.7009 155.86 19.0168 160.32 8.75111L168.357 12.0748L166.337 12.748C167.263 14.0943 168.385 14.9779 169.704 15.3986C171.05 19.8863 171.499 23.9113 171.05 27.4734C173.266 28.7917 175.272 30.5728 177.067 32.8167L176.394 30.7972C179.059 24.5704 179.059 18.7784 176.394 13.4212L177.067 9.3822L174.374 10.0554C172.607 8.28831 171.275 6.28285 170.377 4.03897C168.133 4.48775 166.576 3.81459 165.706 2.01949C163.462 2.49631 161.667 1.82315 160.32 0Z" fill="#FF0000"/>
<path d="M190.364 15.3144C185.259 22.4668 186.535 25.5381 194.193 24.5283C200.309 19.4235 199.033 16.3522 190.364 15.3144ZM190.364 28.357C187.307 31.9191 187.054 35.4813 189.607 39.0434C190.112 42.6336 189.34 43.1525 187.293 40.6001V43.6714L189.607 45.9854C188.064 55.1572 188.821 63.0669 191.879 69.7143L191.122 71.9863C192.665 77.0911 193.689 81.4246 194.193 84.9867C196.746 83.977 197.518 81.1721 196.508 76.5722C197.013 72.0003 196.746 67.9193 195.708 64.3291V59.7431C195.203 51.581 195.975 44.4287 198.023 38.2861C196.48 35.7617 195.975 32.9569 196.508 29.8716C194.46 28.8618 192.412 28.357 190.364 28.357Z" fill="#FF0000"/>
<path d="M213.844 34.5416C200.183 36.9818 197.013 48.4957 204.334 69.0833C204.334 73.1222 205.499 76.8667 207.827 80.3167C210.688 87.2446 215.008 92.1391 220.787 95L223.354 92.4336L230.297 86.3751L234 69.2095C229.792 72.6033 226.819 75.7307 225.079 78.5917L222.512 76.8667C223.074 78.6057 223.074 80.3447 222.512 82.0837C210.394 74.5948 208.29 65.6193 216.201 55.1572C214.069 50.0524 216.173 46.911 222.512 45.733C224.813 48.6219 228.389 54.2036 233.243 62.4779C229.54 45.0037 223.074 35.6916 213.844 34.5416Z" fill="#FF0000"/>
</svg>
