<svg width="12" height="12" viewBox="0 0 12 12" fill="none" xmlns="http://www.w3.org/2000/svg">
<path fill-rule="evenodd" clip-rule="evenodd" d="M12 6C12 9.31371 9.31371 12 6 12C2.68629 12 0 9.31371 0 6C0 2.68629 2.68629 0 6 0C9.31371 0 12 2.68629 12 6ZM6.19629 9.33814H6.19776C8.16487 9.33734 9.76474 7.73708 9.76553 5.77039C9.76591 4.8171 9.39514 3.92072 8.72154 3.24636C8.04795 2.57198 7.15215 2.20042 6.19773 2.20001C4.2312 2.20001 2.63069 3.80044 2.62991 5.76757C2.62964 6.39638 2.79393 7.01014 3.10615 7.55122L2.59999 9.40001L4.49133 8.90387C5.01244 9.18812 5.59917 9.33794 6.19629 9.33814Z" fill="#C40000"/>
<path fill-rule="evenodd" clip-rule="evenodd" d="M4.68726 8.32224L4.57897 8.25797L3.45663 8.55239L3.7562 7.45811L3.68569 7.34591C3.38885 6.87378 3.23207 6.3281 3.2323 5.76777C3.23295 4.13278 4.56324 2.80261 6.19894 2.80261C6.991 2.80289 7.73555 3.11173 8.29542 3.67225C8.8553 4.23277 9.16345 4.97781 9.16314 5.77017C9.16249 7.40529 7.83222 8.73559 6.19777 8.73559H6.19657C5.66445 8.73538 5.14255 8.59242 4.68726 8.32224ZM7.87313 6.5385C7.93531 6.56855 7.97729 6.58884 7.99522 6.61877C8.0175 6.65594 8.0175 6.83443 7.94325 7.0427C7.86893 7.25093 7.51279 7.44099 7.3415 7.46657C7.18792 7.48953 6.99356 7.49911 6.78001 7.43124C6.65053 7.39016 6.48449 7.33531 6.2718 7.24346C5.43607 6.88259 4.87128 6.07258 4.76454 5.91949C4.75706 5.90877 4.75183 5.90127 4.74891 5.89737L4.7482 5.89641C4.70102 5.83347 4.38491 5.41169 4.38491 4.97518C4.38491 4.56455 4.58662 4.34931 4.67946 4.25024C4.68582 4.24345 4.69167 4.23721 4.69691 4.23149C4.77862 4.14224 4.87521 4.11993 4.93464 4.11993C4.99406 4.11993 5.05356 4.12047 5.1055 4.12308C5.1119 4.12341 5.11857 4.12337 5.12546 4.12333C5.17741 4.12302 5.24218 4.12264 5.30607 4.27611C5.33065 4.33518 5.36662 4.42274 5.40455 4.51509C5.48126 4.70185 5.56602 4.90818 5.58093 4.93804C5.60322 4.98266 5.61807 5.0347 5.58836 5.09423C5.5839 5.10315 5.57977 5.11157 5.57583 5.11962C5.55351 5.16518 5.5371 5.1987 5.49922 5.24293C5.48432 5.26032 5.46893 5.27907 5.45353 5.29782C5.42286 5.33517 5.3922 5.37251 5.36549 5.39912C5.32086 5.44357 5.2744 5.4918 5.32641 5.58105C5.37841 5.6703 5.55732 5.96222 5.82234 6.19861C6.10722 6.45271 6.35482 6.56011 6.48032 6.61455C6.50483 6.62518 6.52468 6.63379 6.53924 6.64108C6.62836 6.68572 6.68036 6.67825 6.73237 6.61877C6.78437 6.55927 6.95522 6.35845 7.01464 6.26922C7.07406 6.18 7.13351 6.19486 7.21521 6.2246C7.29694 6.25438 7.73523 6.47002 7.82438 6.51464C7.84178 6.52335 7.85805 6.53121 7.87313 6.5385Z" fill="#C40000"/>
</svg>
